<svg width="6896" height="3697" viewBox="0 0 6896 3697" fill="none" xmlns="http://www.w3.org/2000/svg">
<g filter="url(#filter0_d_213_9)">
<rect width="684.275" height="1592.42" rx="145" transform="matrix(0.866044 -0.499967 0.866044 0.499967 3246.78 988.703)" fill="white"/>
<rect x="8.66044" width="674.275" height="1582.42" rx="140" transform="matrix(0.866044 -0.499967 0.866044 0.499967 3247.94 993.033)" stroke="#859EDB" stroke-width="10"/>
</g>
<g filter="url(#filter1_d_213_9)">
<rect width="1311.24" height="2037.03" rx="145" transform="matrix(0.866044 -0.499967 0.866044 0.499967 0 2646.33)" fill="white"/>
<rect x="8.66044" width="1301.24" height="2027.03" rx="140" transform="matrix(0.866044 -0.499967 0.866044 0.499967 1.16012 2650.66)" stroke="#F2A5A5" stroke-width="10"/>
</g>
<g filter="url(#filter2_d_213_9)">
<rect width="689.275" height="1922.76" rx="145" transform="matrix(0.866044 -0.499967 0.866044 0.499967 4086 344.615)" fill="white"/>
<rect x="8.66044" width="679.275" height="1912.76" rx="140" transform="matrix(0.866044 -0.499967 0.866044 0.499967 4087.16 348.945)" stroke="url(#paint0_linear_213_9)" stroke-width="10"/>
</g>
<g filter="url(#filter3_d_213_9)">
<rect width="812.608" height="2045.2" rx="145" transform="matrix(0.866044 -0.499967 0.866044 0.499967 1897.25 1545.65)" fill="white"/>
<rect x="8.66044" width="802.608" height="2035.2" rx="140" transform="matrix(0.866044 -0.499967 0.866044 0.499967 1898.41 1549.98)" stroke="#05CFAF" stroke-width="10"/>
</g>
<path d="M3522.33 1544.83L3627.7 1478.26" stroke="#869FDD" stroke-width="20"/>
<path d="M3371.2 1196L3341.85 1178.73L3377.85 1174L3371.2 1196Z" fill="#8199D5" stroke="#839BD8" stroke-width="20"/>
<path d="M2029.85 1784C2039.85 1791.5 1844 1847.19 1956 1915C2029.77 1959.66 2371.12 2148.67 2525.95 2238.5L3018.45 2524C3083.95 2561 3145.05 2508.5 3195.45 2472.5" stroke="#06D0B0" stroke-width="20"/>
<path d="M2459.85 2200.5L2582.35 2130" stroke="#06D0B0" stroke-width="20"/>
<path d="M3207.15 2483L3177.8 2465.73L3213.8 2461L3207.15 2483Z" fill="#E99696" stroke="#06D0B0" stroke-width="20"/>
<path d="M2602.2 2138L2572.85 2120.73L2608.85 2116L2602.2 2138Z" fill="#E99696" stroke="#06D0B0" stroke-width="20"/>
<path d="M2035.19 1803L2005.85 1785.73L2041.85 1781L2035.19 1803Z" fill="#E99696" stroke="#06D0B0" stroke-width="20"/>
<path d="M956 2501C922.147 2521.5 773 2590.46 873.352 2644.5C954.603 2688.25 1487.19 2994.5 1756.85 3151C1810 3181.84 1831 3202.48 1921.85 3151C1981.85 3117 2015.35 3092.67 2022.85 3088.5" stroke="#E99696" stroke-width="20"/>
<path d="M974.346 2512L945 2494.73L981 2490L974.346 2512Z" fill="#E99696" stroke="#E99696" stroke-width="20"/>
<path d="M2023.2 3109L1993.85 3091.73L2029.85 3087L2023.2 3109Z" fill="#E99696" stroke="#E99696" stroke-width="20"/>
<path d="M3354.35 1185.5C3325 1211 3231.83 1237.6 3302.23 1278C3314.44 1285.01 4069.5 1736 4080.5 1732C4115.5 1746.5 4149.85 1715 4185.85 1691.5C4223.08 1667.2 4216.35 1672.33 4219.85 1669" stroke="#869FDD" stroke-width="20"/>
<path d="M4226.2 1687L4196.85 1669.73L4232.85 1665L4226.2 1687Z" fill="#869FDD" stroke="#839BD8" stroke-width="20"/>
<path d="M4123 676.5C4151 652.167 4204.25 602.796 4257.85 631.996C4311.45 661.196 4679.16 875.353 4715.85 895.995C4950.35 1027.91 5001.73 1052.54 5011.85 1076.5C5035.5 1132.5 4911 1172 4930.5 1184" stroke="#CA8568" stroke-width="20"/>
<path d="M4311 659L4389 610" stroke="#CB8668" stroke-width="20"/>
<path d="M4404.2 621L4374.85 603.733L4410.85 599L4404.2 621Z" fill="#8199D5" stroke="#C78568" stroke-width="20"/>
<path d="M5014 524.216C5043.92 544.884 5200.6 635.43 5246 664.816" stroke="#B96767" stroke-width="20"/>
<path d="M5237 672.472L5271.18 653L5280 679L5237 672.472Z" fill="#B96767" stroke="#B96767" stroke-width="20"/>
<path d="M1292.35 2882.5L1186.85 2941" stroke="#E99696" stroke-width="20"/>
<path d="M2468.35 2197L2224 2336" stroke="#06D0B0" stroke-width="20"/>
<circle cx="1189.35" cy="2938.5" r="33.5" fill="#E99696"/>
<circle cx="2218.5" cy="2344.5" r="33.5" fill="#06D0B0"/>
<circle cx="3520.5" cy="1544.5" r="33.5" fill="#869FDD"/>
<g filter="url(#filter4_d_213_9)">
<path d="M4839.5 181.5L4991 80.9999C5027.83 58.9999 5098.8 5.20022 5184 58.0002C5269.2 110.8 6133.67 612.82 6597 879.653L6791.5 991.654C6863.33 1029.82 6963.9 1130.35 6791.5 1227.15C6619.1 1323.95 4085 2781.67 2670 3597C2635.33 3616.5 2545.2 3643.8 2462 3597C2378.8 3550.2 2246.83 3472.17 2242 3469.5" stroke="url(#paint1_linear_213_9)" stroke-width="10"/>
</g>
<path d="M4431.5 2585L4032.85 2351" stroke="url(#paint2_linear_213_9)" stroke-width="10"/>
<path d="M5506.5 1970L4901.85 1620" stroke="url(#paint3_linear_213_9)" stroke-width="10"/>
<path d="M6487 1401L6027.35 1134.5" stroke="url(#paint4_linear_213_9)" stroke-width="10"/>
<circle cx="4422.5" cy="2584.5" r="36.5" fill="url(#paint5_linear_213_9)"/>
<circle cx="5497.5" cy="1961.5" r="36.5" fill="url(#paint6_linear_213_9)"/>
<circle cx="6486.5" cy="1400.5" r="36.5" fill="url(#paint7_linear_213_9)"/>
<path d="M2341 3474.5L2263.5 3520L2230 3456L2341 3474.5Z" fill="url(#paint8_linear_213_9)"/>
<circle cx="4104.5" cy="687.5" r="34.5" fill="#CA8568"/>
<circle cx="4942.5" cy="1171.5" r="34.5" fill="#CA8568"/>
<circle cx="5014.5" cy="525.5" r="34.5" fill="#B96767"/>
<path d="M5388 2294L5062 2487" stroke="#67EC84" stroke-width="8"/>
<path d="M5119 2486.45L5057.98 2451L5035 2503L5119 2486.45Z" fill="url(#paint9_linear_213_9)"/>
<defs>
<filter id="filter0_d_213_9" x="3265.34" y="653.055" width="1934.6" height="1163.34" filterUnits="userSpaceOnUse" color-interpolation-filters="sRGB">
<feFlood flood-opacity="0" result="BackgroundImageFix"/>
<feColorMatrix in="SourceAlpha" type="matrix" values="0 0 0 0 0 0 0 0 0 0 0 0 0 0 0 0 0 0 127 0" result="hardAlpha"/>
<feOffset dy="19"/>
<feGaussianBlur stdDeviation="27.5"/>
<feComposite in2="hardAlpha" operator="out"/>
<feColorMatrix type="matrix" values="0 0 0 0 0.521569 0 0 0 0 0.619608 0 0 0 0 0.858824 0 0 0 0.25 0"/>
<feBlend mode="normal" in2="BackgroundImageFix" result="effect1_dropShadow_213_9"/>
<feBlend mode="normal" in="SourceGraphic" in2="effect1_dropShadow_213_9" result="shape"/>
</filter>
<filter id="filter1_d_213_9" x="18.5605" y="1997.22" width="2862.63" height="1699.09" filterUnits="userSpaceOnUse" color-interpolation-filters="sRGB">
<feFlood flood-opacity="0" result="BackgroundImageFix"/>
<feColorMatrix in="SourceAlpha" type="matrix" values="0 0 0 0 0 0 0 0 0 0 0 0 0 0 0 0 0 0 127 0" result="hardAlpha"/>
<feOffset dy="19"/>
<feGaussianBlur stdDeviation="27.5"/>
<feComposite in2="hardAlpha" operator="out"/>
<feColorMatrix type="matrix" values="0 0 0 0 0.94902 0 0 0 0 0.647059 0 0 0 0 0.647059 0 0 0 0.25 0"/>
<feBlend mode="normal" in2="BackgroundImageFix" result="effect1_dropShadow_213_9"/>
<feBlend mode="normal" in="SourceGraphic" in2="effect1_dropShadow_213_9" result="shape"/>
</filter>
<filter id="filter2_d_213_9" x="4104.56" y="6.46631" width="2225.01" height="1331" filterUnits="userSpaceOnUse" color-interpolation-filters="sRGB">
<feFlood flood-opacity="0" result="BackgroundImageFix"/>
<feColorMatrix in="SourceAlpha" type="matrix" values="0 0 0 0 0 0 0 0 0 0 0 0 0 0 0 0 0 0 127 0" result="hardAlpha"/>
<feOffset dy="19"/>
<feGaussianBlur stdDeviation="27.5"/>
<feComposite in2="hardAlpha" operator="out"/>
<feColorMatrix type="matrix" values="0 0 0 0 0.776471 0 0 0 0 0.431373 0 0 0 0 0.423529 0 0 0 0.25 0"/>
<feBlend mode="normal" in2="BackgroundImageFix" result="effect1_dropShadow_213_9"/>
<feBlend mode="normal" in="SourceGraphic" in2="effect1_dropShadow_213_9" result="shape"/>
</filter>
<filter id="filter3_d_213_9" x="1915.81" y="1145.84" width="2437.87" height="1453.88" filterUnits="userSpaceOnUse" color-interpolation-filters="sRGB">
<feFlood flood-opacity="0" result="BackgroundImageFix"/>
<feColorMatrix in="SourceAlpha" type="matrix" values="0 0 0 0 0 0 0 0 0 0 0 0 0 0 0 0 0 0 127 0" result="hardAlpha"/>
<feOffset dy="19"/>
<feGaussianBlur stdDeviation="27.5"/>
<feComposite in2="hardAlpha" operator="out"/>
<feColorMatrix type="matrix" values="0 0 0 0 0.0196078 0 0 0 0 0.811765 0 0 0 0 0.686275 0 0 0 0.25 0"/>
<feBlend mode="normal" in2="BackgroundImageFix" result="effect1_dropShadow_213_9"/>
<feBlend mode="normal" in="SourceGraphic" in2="effect1_dropShadow_213_9" result="shape"/>
</filter>
<filter id="filter4_d_213_9" x="2235.58" y="30.5063" width="4660.11" height="3605.34" filterUnits="userSpaceOnUse" color-interpolation-filters="sRGB">
<feFlood flood-opacity="0" result="BackgroundImageFix"/>
<feColorMatrix in="SourceAlpha" type="matrix" values="0 0 0 0 0 0 0 0 0 0 0 0 0 0 0 0 0 0 127 0" result="hardAlpha"/>
<feOffset dy="4"/>
<feGaussianBlur stdDeviation="2"/>
<feComposite in2="hardAlpha" operator="out"/>
<feColorMatrix type="matrix" values="0 0 0 0 0 0 0 0 0 0 0 0 0 0 0 0 0 0 0.25 0"/>
<feBlend mode="normal" in2="BackgroundImageFix" result="effect1_dropShadow_213_9"/>
<feBlend mode="normal" in="SourceGraphic" in2="effect1_dropShadow_213_9" result="shape"/>
</filter>
<linearGradient id="paint0_linear_213_9" x1="16.6567" y1="-76.1619" x2="561.162" y2="1866.27" gradientUnits="userSpaceOnUse">
<stop stop-color="#F79469"/>
<stop offset="1" stop-color="#C36C6C"/>
</linearGradient>
<linearGradient id="paint1_linear_213_9" x1="6887" y1="-171.5" x2="1762.5" y2="3712" gradientUnits="userSpaceOnUse">
<stop stop-color="#6EE288"/>
<stop offset="0.257103" stop-color="#3BFD66"/>
<stop offset="1" stop-color="#70CE84"/>
</linearGradient>
<linearGradient id="paint2_linear_213_9" x1="4539.85" y1="2617.5" x2="3977.35" y2="2307.5" gradientUnits="userSpaceOnUse">
<stop stop-color="#5BFF7F"/>
<stop offset="1" stop-color="#05CFAF"/>
</linearGradient>
<linearGradient id="paint3_linear_213_9" x1="5701.85" y1="2084.5" x2="4833.35" y2="1594" gradientUnits="userSpaceOnUse">
<stop stop-color="#5BFF7F"/>
<stop offset="1" stop-color="#859EDB"/>
</linearGradient>
<linearGradient id="paint4_linear_213_9" x1="6695.85" y1="1513" x2="5917.85" y2="1094.5" gradientUnits="userSpaceOnUse">
<stop stop-color="#5BFF7F"/>
<stop offset="0.880208" stop-color="#C36C6C"/>
<stop offset="1" stop-color="#C36C6C"/>
</linearGradient>
<linearGradient id="paint5_linear_213_9" x1="4319.5" y1="2609.5" x2="4555.5" y2="2534.5" gradientUnits="userSpaceOnUse">
<stop stop-color="#72DC89"/>
<stop offset="1" stop-color="#5BFF7F"/>
</linearGradient>
<linearGradient id="paint6_linear_213_9" x1="5553.5" y1="1936.5" x2="5450.5" y2="1990.5" gradientUnits="userSpaceOnUse">
<stop stop-color="#5BFF7F"/>
<stop offset="1" stop-color="#61C777"/>
</linearGradient>
<linearGradient id="paint7_linear_213_9" x1="6554.5" y1="1371" x2="6429" y2="1437" gradientUnits="userSpaceOnUse">
<stop stop-color="#5BFF7F"/>
<stop offset="0.0625" stop-color="#53FF79"/>
<stop offset="1" stop-color="#5DF27E"/>
</linearGradient>
<linearGradient id="paint8_linear_213_9" x1="2403.5" y1="3442.5" x2="2151.5" y2="3502" gradientUnits="userSpaceOnUse">
<stop stop-color="#5BFF7F"/>
<stop offset="1" stop-color="#7CE693"/>
</linearGradient>
<linearGradient id="paint9_linear_213_9" x1="5099.19" y1="2451" x2="5030.93" y2="2503.38" gradientUnits="userSpaceOnUse">
<stop stop-color="#67EC84"/>
<stop offset="1" stop-color="#73DB8A"/>
</linearGradient>
</defs>
</svg>
