<svg width="1130" height="676" viewBox="0 0 1130 676" fill="none" xmlns="http://www.w3.org/2000/svg">
<g clip-path="url(#clip0_249_199)">
<g filter="url(#filter0_d_249_199)">
<path d="M589.924 151.478L552.499 173.084C535.758 182.748 535.758 198.417 552.499 208.081L720.052 304.809C736.792 314.474 763.934 314.474 780.675 304.809L818.1 283.204C834.841 273.54 834.841 257.871 818.1 248.206L650.547 151.478C633.807 141.814 606.665 141.814 589.924 151.478Z" fill="white"/>
<path d="M590.789 151.979L553.363 173.584C537.101 182.972 537.101 198.194 553.363 207.582L720.916 304.31C737.178 313.698 763.545 313.698 779.807 304.31L817.232 282.704C833.495 273.316 833.495 258.095 817.232 248.707L649.68 151.979C633.417 142.59 607.051 142.59 590.789 151.979Z" stroke="#859EDB" stroke-width="2"/>
</g>
<g filter="url(#filter1_d_249_199)">
<path d="M111.396 391.872L46.4891 429.342C12.5296 448.947 12.5296 480.733 46.4891 500.338L215.395 597.847C249.354 617.451 304.413 617.451 338.373 597.847L403.279 560.376C437.239 540.771 437.239 508.986 403.279 489.381L234.374 391.872C200.414 372.267 145.355 372.267 111.396 391.872Z" fill="white"/>
<path d="M112.26 392.372L47.3535 429.842C13.8723 449.171 13.8723 480.509 47.3535 499.838L216.259 597.347C249.74 616.675 304.024 616.675 337.505 597.347L402.412 559.876C435.893 540.547 435.893 509.209 402.412 489.881L233.506 392.372C200.025 373.043 145.741 373.043 112.26 392.372Z" stroke="#F2A5A5" stroke-width="2"/>
</g>
<g filter="url(#filter2_d_249_199)">
<path d="M732.953 42.4993L687.883 68.5186C673.055 77.0784 673.055 90.9567 687.883 99.5166L909.697 227.57C924.525 236.13 948.565 236.13 963.392 227.57L1008.46 201.551C1023.29 192.991 1023.29 179.113 1008.46 170.553L786.648 42.4993C771.821 33.9395 747.781 33.9395 732.953 42.4993Z" fill="white"/>
<path d="M733.818 42.9993L688.747 69.0186C674.398 77.3023 674.398 90.7329 688.747 99.0166L910.562 227.07C924.911 235.354 948.175 235.354 962.524 227.07L1007.59 201.051C1021.94 192.767 1021.94 179.337 1007.59 171.053L785.78 42.9993C771.431 34.7156 748.167 34.7156 733.818 42.9993Z" stroke="url(#paint0_linear_249_199)" stroke-width="2"/>
</g>
<g filter="url(#filter3_d_249_199)">
<path d="M382.43 234.511L331.812 263.732C313.637 274.225 313.637 291.237 331.812 301.73L559.046 432.912C577.222 443.405 606.69 443.405 624.866 432.912L675.483 403.69C693.659 393.198 693.659 376.186 675.483 365.693L448.249 234.511C430.074 224.018 400.605 224.018 382.43 234.511Z" fill="white"/>
<path d="M383.294 235.011L332.676 264.232C314.979 274.449 314.979 291.013 332.676 301.23L559.911 432.412C577.608 442.629 606.301 442.629 623.998 432.412L674.616 403.19C692.313 392.974 692.313 376.41 674.616 366.193L447.381 235.011C429.684 224.794 400.991 224.794 383.294 235.011Z" stroke="#05CFAF" stroke-width="2"/>
</g>
<path d="M567.773 282.594L585.207 271.581" stroke="#869FDD" stroke-width="2"/>
<path d="M320.847 322.166C322.502 323.407 290.097 332.621 308.628 343.84C320.833 351.23 377.309 382.501 402.927 397.364L484.412 444.6C495.249 450.722 505.358 442.036 513.697 436.08" stroke="#06D0B0" stroke-width="2"/>
<path d="M391.984 391.076L412.252 379.412" stroke="#06D0B0" stroke-width="2"/>
<path d="M515.629 437.817L510.773 434.96L516.73 434.177L515.629 437.817Z" fill="#E99696" stroke="#06D0B0" stroke-width="2"/>
<path d="M415.542 380.737L410.688 377.88L416.643 377.097L415.542 380.737Z" fill="#E99696" stroke="#06D0B0" stroke-width="2"/>
<path d="M321.73 325.31L316.875 322.453L322.831 321.67L321.73 325.31Z" fill="#E99696" stroke="#06D0B0" stroke-width="2"/>
<path d="M143.172 440.795C137.571 444.187 112.894 455.596 129.497 464.537C142.94 471.776 231.057 522.445 275.674 548.339C284.468 553.442 287.942 556.856 302.974 548.339C312.901 542.713 318.443 538.687 319.684 537.998" stroke="#E99696" stroke-width="2"/>
<path d="M146.207 442.616L141.352 439.759L147.308 438.976L146.207 442.616Z" fill="#E99696" stroke="#E99696" stroke-width="2"/>
<path d="M319.742 541.391L314.887 538.534L320.843 537.751L319.742 541.391Z" fill="#E99696" stroke="#E99696" stroke-width="2"/>
<path d="M539.984 223.144C535.128 227.363 519.713 231.763 531.36 238.448C533.38 239.607 658.307 314.225 660.127 313.563C665.917 315.962 671.601 310.75 677.557 306.862C683.716 302.842 682.604 303.691 683.183 303.139" stroke="#869FDD" stroke-width="2"/>
<path d="M684.234 306.117L679.379 303.261L685.335 302.478L684.234 306.117Z" fill="#869FDD" stroke="#839BD8" stroke-width="2"/>
<path d="M667.16 138.928C671.793 134.902 680.603 126.734 689.472 131.565C698.34 136.396 759.177 171.829 765.249 175.244C804.047 197.069 812.548 201.145 814.222 205.109C818.135 214.374 797.536 220.91 800.762 222.895" stroke="#CA8568" stroke-width="2"/>
<path d="M698.266 136.032L711.171 127.925" stroke="#CB8668" stroke-width="2"/>
<path d="M713.683 129.745L708.828 126.889L714.784 126.105L713.683 129.745Z" fill="#8199D5" stroke="#C78568" stroke-width="2"/>
<path d="M814.574 113.733C819.525 117.153 845.448 132.134 852.96 136.996" stroke="#B96767" stroke-width="2"/>
<path d="M849.473 138.262L855.127 135.04L856.587 139.342L849.473 138.262Z" fill="#B96767" stroke="#B96767" stroke-width="2"/>
<path d="M198.822 503.916L181.367 513.595" stroke="#E99696" stroke-width="2"/>
<path d="M393.393 390.498L352.965 413.496" stroke="#06D0B0" stroke-width="2"/>
<path d="M181.781 518.722C184.842 518.722 187.324 516.24 187.324 513.179C187.324 510.118 184.842 507.637 181.781 507.637C178.72 507.637 176.238 510.118 176.238 513.179C176.238 516.24 178.72 518.722 181.781 518.722Z" fill="#E99696"/>
<path d="M352.05 420.445C355.112 420.445 357.593 417.963 357.593 414.902C357.593 411.841 355.112 409.359 352.05 409.359C348.989 409.359 346.508 411.841 346.508 414.902C346.508 417.963 348.989 420.445 352.05 420.445Z" fill="#06D0B0"/>
<path d="M567.472 288.084C570.533 288.084 573.015 285.602 573.015 282.541C573.015 279.48 570.533 276.999 567.472 276.999C564.411 276.999 561.93 279.48 561.93 282.541C561.93 285.602 564.411 288.084 567.472 288.084Z" fill="#869FDD"/>
<g filter="url(#filter4_d_249_199)">
<path d="M785.702 57.03L810.768 40.4021C816.862 36.7621 828.604 27.8609 842.7 36.5967C856.797 45.3326 999.825 128.393 1076.49 172.541L1108.67 191.071C1120.55 197.386 1137.19 214.019 1108.67 230.035C1080.14 246.051 660.869 487.232 426.755 622.131C421.019 625.357 406.106 629.874 392.341 622.131C378.575 614.388 356.741 601.477 355.941 601.036" stroke="url(#paint1_linear_249_199)" stroke-width="2"/>
</g>
<path d="M718.199 454.693L652.242 415.978" stroke="url(#paint2_linear_249_199)" stroke-width="2"/>
<path d="M896.06 352.94L796.02 295.032" stroke="url(#paint3_linear_249_199)" stroke-width="2"/>
<path d="M1058.29 258.799L982.234 214.706" stroke="url(#paint4_linear_249_199)" stroke-width="2"/>
<path d="M716.711 460.649C720.046 460.649 722.75 457.946 722.75 454.61C722.75 451.275 720.046 448.571 716.711 448.571C713.376 448.571 710.672 451.275 710.672 454.61C710.672 457.946 713.376 460.649 716.711 460.649Z" fill="url(#paint5_linear_249_199)"/>
<path d="M894.57 357.573C897.905 357.573 900.609 354.869 900.609 351.534C900.609 348.199 897.905 345.495 894.57 345.495C891.235 345.495 888.531 348.199 888.531 351.534C888.531 354.869 891.235 357.573 894.57 357.573Z" fill="url(#paint6_linear_249_199)"/>
<path d="M1058.2 264.756C1061.53 264.756 1064.24 262.052 1064.24 258.717C1064.24 255.382 1061.53 252.678 1058.2 252.678C1054.86 252.678 1052.16 255.382 1052.16 258.717C1052.16 262.052 1054.86 264.756 1058.2 264.756Z" fill="url(#paint7_linear_249_199)"/>
<path d="M372.322 601.863L359.5 609.391L353.957 598.802L372.322 601.863Z" fill="url(#paint8_linear_249_199)"/>
<path d="M664.099 146.456C667.251 146.456 669.807 143.901 669.807 140.748C669.807 137.596 667.251 135.04 664.099 135.04C660.946 135.04 658.391 137.596 658.391 140.748C658.391 143.901 660.946 146.456 664.099 146.456Z" fill="#CA8568"/>
<path d="M802.743 226.535C805.896 226.535 808.451 223.98 808.451 220.827C808.451 217.675 805.896 215.119 802.743 215.119C799.591 215.119 797.035 217.675 797.035 220.827C797.035 223.98 799.591 226.535 802.743 226.535Z" fill="#CA8568"/>
<path d="M814.657 119.653C817.81 119.653 820.365 117.097 820.365 113.945C820.365 110.792 817.81 108.237 814.657 108.237C811.505 108.237 808.949 110.792 808.949 113.945C808.949 117.097 811.505 119.653 814.657 119.653Z" fill="#B96767"/>
<path d="M876.453 406.547L822.516 438.479" stroke="#67EC84" stroke-width="2"/>
<path d="M831.949 438.388L821.853 432.522L818.051 441.126L831.949 438.388Z" fill="url(#paint9_linear_249_199)"/>
<path d="M540.879 225.903L536 222.839L541.984 222L540.879 225.903Z" fill="#8199D5" stroke="#839BD8" stroke-width="2"/>
<path d="M328 467.247L331.974 465L333 468L328 467.247Z" fill="#E99696" stroke="#E99696" stroke-width="2"/>
<path d="M253 421L332 467.5" stroke="#E99696" stroke-width="2"/>
<path d="M252.933 424.185L250.915 419.837L258.447 421.002L252.933 424.185Z" fill="#E99696" stroke="#E99696"/>
</g>
<defs>
<filter id="filter0_d_249_199" x="484.941" y="108.23" width="400.715" height="277.828" filterUnits="userSpaceOnUse" color-interpolation-filters="sRGB">
<feFlood flood-opacity="0" result="BackgroundImageFix"/>
<feColorMatrix in="SourceAlpha" type="matrix" values="0 0 0 0 0 0 0 0 0 0 0 0 0 0 0 0 0 0 127 0" result="hardAlpha"/>
<feOffset dy="19"/>
<feGaussianBlur stdDeviation="27.5"/>
<feComposite in2="hardAlpha" operator="out"/>
<feColorMatrix type="matrix" values="0 0 0 0 0.521569 0 0 0 0 0.619608 0 0 0 0 0.858824 0 0 0 0.25 0"/>
<feBlend mode="normal" in2="BackgroundImageFix" result="effect1_dropShadow_249_199"/>
<feBlend mode="normal" in="SourceGraphic" in2="effect1_dropShadow_249_199" result="shape"/>
</filter>
<filter id="filter1_d_249_199" x="-33.9805" y="341.168" width="517.73" height="345.382" filterUnits="userSpaceOnUse" color-interpolation-filters="sRGB">
<feFlood flood-opacity="0" result="BackgroundImageFix"/>
<feColorMatrix in="SourceAlpha" type="matrix" values="0 0 0 0 0 0 0 0 0 0 0 0 0 0 0 0 0 0 127 0" result="hardAlpha"/>
<feOffset dy="19"/>
<feGaussianBlur stdDeviation="27.5"/>
<feComposite in2="hardAlpha" operator="out"/>
<feColorMatrix type="matrix" values="0 0 0 0 0.94902 0 0 0 0 0.647059 0 0 0 0 0.647059 0 0 0 0.25 0"/>
<feBlend mode="normal" in2="BackgroundImageFix" result="effect1_dropShadow_249_199"/>
<feBlend mode="normal" in="SourceGraphic" in2="effect1_dropShadow_249_199" result="shape"/>
</filter>
<filter id="filter2_d_249_199" x="621.762" y="0.0795898" width="452.82" height="307.91" filterUnits="userSpaceOnUse" color-interpolation-filters="sRGB">
<feFlood flood-opacity="0" result="BackgroundImageFix"/>
<feColorMatrix in="SourceAlpha" type="matrix" values="0 0 0 0 0 0 0 0 0 0 0 0 0 0 0 0 0 0 127 0" result="hardAlpha"/>
<feOffset dy="19"/>
<feGaussianBlur stdDeviation="27.5"/>
<feComposite in2="hardAlpha" operator="out"/>
<feColorMatrix type="matrix" values="0 0 0 0 0.776471 0 0 0 0 0.431373 0 0 0 0 0.423529 0 0 0 0.25 0"/>
<feBlend mode="normal" in2="BackgroundImageFix" result="effect1_dropShadow_249_199"/>
<feBlend mode="normal" in="SourceGraphic" in2="effect1_dropShadow_249_199" result="shape"/>
</filter>
<filter id="filter3_d_249_199" x="263.18" y="190.641" width="480.934" height="324.14" filterUnits="userSpaceOnUse" color-interpolation-filters="sRGB">
<feFlood flood-opacity="0" result="BackgroundImageFix"/>
<feColorMatrix in="SourceAlpha" type="matrix" values="0 0 0 0 0 0 0 0 0 0 0 0 0 0 0 0 0 0 127 0" result="hardAlpha"/>
<feOffset dy="19"/>
<feGaussianBlur stdDeviation="27.5"/>
<feComposite in2="hardAlpha" operator="out"/>
<feColorMatrix type="matrix" values="0 0 0 0 0.0196078 0 0 0 0 0.811765 0 0 0 0 0.686275 0 0 0 0.25 0"/>
<feBlend mode="normal" in2="BackgroundImageFix" result="effect1_dropShadow_249_199"/>
<feBlend mode="normal" in="SourceGraphic" in2="effect1_dropShadow_249_199" result="shape"/>
</filter>
<filter id="filter4_d_249_199" x="351.457" y="31.875" width="777.957" height="603.532" filterUnits="userSpaceOnUse" color-interpolation-filters="sRGB">
<feFlood flood-opacity="0" result="BackgroundImageFix"/>
<feColorMatrix in="SourceAlpha" type="matrix" values="0 0 0 0 0 0 0 0 0 0 0 0 0 0 0 0 0 0 127 0" result="hardAlpha"/>
<feOffset dy="4"/>
<feGaussianBlur stdDeviation="2"/>
<feComposite in2="hardAlpha" operator="out"/>
<feColorMatrix type="matrix" values="0 0 0 0 0 0 0 0 0 0 0 0 0 0 0 0 0 0 0.25 0"/>
<feBlend mode="normal" in2="BackgroundImageFix" result="effect1_dropShadow_249_199"/>
<feBlend mode="normal" in="SourceGraphic" in2="effect1_dropShadow_249_199" result="shape"/>
</filter>
<linearGradient id="paint0_linear_249_199" x1="652.739" y1="77.2056" x2="893.463" y2="311.594" gradientUnits="userSpaceOnUse">
<stop stop-color="#F79469"/>
<stop offset="1" stop-color="#C36C6C"/>
</linearGradient>
<linearGradient id="paint1_linear_249_199" x1="1124.47" y1="-1.37449" x2="276.607" y2="641.157" gradientUnits="userSpaceOnUse">
<stop stop-color="#6EE288"/>
<stop offset="0.257103" stop-color="#3BFD66"/>
<stop offset="1" stop-color="#70CE84"/>
</linearGradient>
<linearGradient id="paint2_linear_249_199" x1="736.126" y1="460.07" x2="643.06" y2="408.78" gradientUnits="userSpaceOnUse">
<stop stop-color="#5BFF7F"/>
<stop offset="1" stop-color="#05CFAF"/>
</linearGradient>
<linearGradient id="paint3_linear_249_199" x1="928.38" y1="371.885" x2="784.686" y2="290.73" gradientUnits="userSpaceOnUse">
<stop stop-color="#5BFF7F"/>
<stop offset="1" stop-color="#859EDB"/>
</linearGradient>
<linearGradient id="paint4_linear_249_199" x1="1092.84" y1="277.33" x2="964.117" y2="208.088" gradientUnits="userSpaceOnUse">
<stop stop-color="#5BFF7F"/>
<stop offset="0.880208" stop-color="#C36C6C"/>
<stop offset="1" stop-color="#C36C6C"/>
</linearGradient>
<linearGradient id="paint5_linear_249_199" x1="699.669" y1="458.747" x2="738.716" y2="446.338" gradientUnits="userSpaceOnUse">
<stop stop-color="#72DC89"/>
<stop offset="1" stop-color="#5BFF7F"/>
</linearGradient>
<linearGradient id="paint6_linear_249_199" x1="903.836" y1="347.398" x2="886.794" y2="356.332" gradientUnits="userSpaceOnUse">
<stop stop-color="#5BFF7F"/>
<stop offset="1" stop-color="#61C777"/>
</linearGradient>
<linearGradient id="paint7_linear_249_199" x1="1069.45" y1="253.836" x2="1048.69" y2="264.756" gradientUnits="userSpaceOnUse">
<stop stop-color="#5BFF7F"/>
<stop offset="0.0625" stop-color="#53FF79"/>
<stop offset="1" stop-color="#5DF27E"/>
</linearGradient>
<linearGradient id="paint8_linear_249_199" x1="382.663" y1="596.568" x2="340.969" y2="606.413" gradientUnits="userSpaceOnUse">
<stop stop-color="#5BFF7F"/>
<stop offset="1" stop-color="#7CE693"/>
</linearGradient>
<linearGradient id="paint9_linear_249_199" x1="828.671" y1="432.522" x2="817.378" y2="441.189" gradientUnits="userSpaceOnUse">
<stop stop-color="#67EC84"/>
<stop offset="1" stop-color="#73DB8A"/>
</linearGradient>
<clipPath id="clip0_249_199">
<rect width="1130" height="676" fill="white"/>
</clipPath>
</defs>
</svg>
