<svg width="1130" height="676" viewBox="0 0 1130 676" fill="none" xmlns="http://www.w3.org/2000/svg">
<g clip-path="url(#clip0_236_51)">
<g filter="url(#filter0_d_236_51)">
<path d="M589.924 151.479L552.499 173.084C535.758 182.749 535.758 198.418 552.499 208.082L720.052 304.81C736.792 314.474 763.934 314.474 780.675 304.81L818.1 283.204C834.841 273.54 834.841 257.871 818.1 248.207L650.547 151.479C633.807 141.814 606.665 141.814 589.924 151.479Z" fill="white"/>
<path d="M590.791 151.979L553.365 173.584C537.103 182.972 537.103 198.194 553.365 207.582L720.918 304.31C737.18 313.698 763.547 313.698 779.809 304.31L817.234 282.704C833.497 273.316 833.497 258.095 817.234 248.707L649.682 151.979C633.419 142.59 607.053 142.59 590.791 151.979Z" stroke="#859EDB" stroke-width="2"/>
</g>
<g filter="url(#filter1_d_236_51)">
<path d="M111.396 391.872L46.4891 429.342C12.5296 448.947 12.5296 480.733 46.4891 500.338L215.395 597.847C249.354 617.451 304.413 617.451 338.373 597.847L403.279 560.376C437.239 540.771 437.239 508.986 403.279 489.381L234.374 391.872C200.414 372.267 145.355 372.267 111.396 391.872Z" fill="white"/>
<path d="M112.262 392.372L47.3555 429.842C13.8743 449.171 13.8743 480.509 47.3555 499.838L216.261 597.347C249.742 616.675 304.026 616.675 337.507 597.347L402.414 559.876C435.895 540.547 435.895 509.209 402.414 489.881L233.508 392.372C200.027 373.043 145.743 373.043 112.262 392.372Z" stroke="#F2A5A5" stroke-width="2"/>
</g>
<g filter="url(#filter2_d_236_51)">
<path d="M732.953 42.4993L687.883 68.5186C673.055 77.0784 673.055 90.9567 687.883 99.5166L909.697 227.57C924.525 236.13 948.565 236.13 963.392 227.57L1008.46 201.551C1023.29 192.991 1023.29 179.113 1008.46 170.553L786.648 42.4993C771.821 33.9395 747.781 33.9395 732.953 42.4993Z" fill="white"/>
<path d="M733.82 42.9993L688.749 69.0186C674.4 77.3023 674.4 90.7329 688.749 99.0166L910.564 227.07C924.913 235.354 948.177 235.354 962.526 227.07L1007.6 201.051C1021.95 192.767 1021.95 179.337 1007.6 171.053L785.782 42.9993C771.433 34.7156 748.169 34.7156 733.82 42.9993Z" stroke="url(#paint0_linear_236_51)" stroke-width="2"/>
</g>
<g filter="url(#filter3_d_236_51)">
<path d="M382.43 234.51L331.812 263.732C313.637 274.224 313.637 291.236 331.812 301.729L559.046 432.912C577.222 443.404 606.69 443.404 624.866 432.912L675.483 403.69C693.659 393.197 693.659 376.185 675.483 365.692L448.249 234.51C430.074 224.017 400.605 224.017 382.43 234.51Z" fill="white"/>
<path d="M383.296 235.01L332.678 264.232C314.981 274.448 314.981 291.013 332.678 301.229L559.913 432.412C577.61 442.628 606.303 442.628 624 432.412L674.618 403.19C692.315 392.973 692.315 376.409 674.618 366.192L447.383 235.01C429.686 224.794 400.993 224.794 383.296 235.01Z" stroke="#05CFAF" stroke-width="2"/>
</g>
<path d="M567.775 282.594L585.209 271.581" stroke="#869FDD" stroke-width="2"/>
<path d="M320.845 322.166C322.5 323.407 290.095 332.621 308.626 343.84C320.831 351.23 377.307 382.501 402.925 397.364L484.41 444.6C495.247 450.722 505.356 442.036 513.695 436.08" stroke="#06D0B0" stroke-width="2"/>
<path d="M391.986 391.076L412.254 379.412" stroke="#06D0B0" stroke-width="2"/>
<path d="M515.629 437.817L510.773 434.96L516.73 434.177L515.629 437.817Z" fill="#E99696" stroke="#06D0B0" stroke-width="2"/>
<path d="M415.541 380.737L410.686 377.88L416.642 377.097L415.541 380.737Z" fill="#E99696" stroke="#06D0B0" stroke-width="2"/>
<path d="M321.73 325.31L316.875 322.453L322.831 321.67L321.73 325.31Z" fill="#E99696" stroke="#06D0B0" stroke-width="2"/>
<path d="M143.174 440.795C137.573 444.187 112.896 455.596 129.499 464.537C142.942 471.776 231.059 522.445 275.676 548.339C284.47 553.442 287.944 556.856 302.976 548.339C312.903 542.713 318.445 538.687 319.686 537.998" stroke="#E99696" stroke-width="2"/>
<path d="M146.207 442.616L141.352 439.759L147.308 438.976L146.207 442.616Z" fill="#E99696" stroke="#E99696" stroke-width="2"/>
<path d="M319.742 541.391L314.887 538.534L320.843 537.751L319.742 541.391Z" fill="#E99696" stroke="#E99696" stroke-width="2"/>
<path d="M539.984 223.144C535.128 227.363 519.713 231.763 531.36 238.448C533.38 239.607 658.307 314.225 660.127 313.563C665.917 315.962 671.601 310.75 677.557 306.862C683.716 302.842 682.604 303.691 683.183 303.139" stroke="#869FDD" stroke-width="2"/>
<path d="M684.232 306.117L679.377 303.261L685.333 302.478L684.232 306.117Z" fill="#869FDD" stroke="#839BD8" stroke-width="2"/>
<path d="M667.16 138.928C671.793 134.902 680.603 126.734 689.472 131.565C698.34 136.396 759.177 171.829 765.249 175.244C804.047 197.069 812.548 201.145 814.222 205.109C818.135 214.374 797.536 220.91 800.762 222.895" stroke="#CA8568" stroke-width="2"/>
<path d="M698.266 136.032L711.171 127.925" stroke="#CB8668" stroke-width="2"/>
<path d="M713.685 129.745L708.83 126.889L714.786 126.105L713.685 129.745Z" fill="#8199D5" stroke="#C78568" stroke-width="2"/>
<path d="M814.572 113.733C819.523 117.153 845.446 132.134 852.958 136.996" stroke="#B96767" stroke-width="2"/>
<path d="M851.471 138.262L857.125 135.04L858.585 139.342L851.471 138.262Z" fill="#B96767" stroke="#B96767" stroke-width="2"/>
<path d="M198.822 503.916L181.367 513.595" stroke="#E99696" stroke-width="2"/>
<path d="M393.393 390.498L352.965 413.496" stroke="#06D0B0" stroke-width="2"/>
<path d="M181.781 518.722C184.842 518.722 187.324 516.24 187.324 513.179C187.324 510.118 184.842 507.637 181.781 507.637C178.72 507.637 176.238 510.118 176.238 513.179C176.238 516.24 178.72 518.722 181.781 518.722Z" fill="#E99696"/>
<path d="M352.052 420.445C355.114 420.445 357.595 417.963 357.595 414.902C357.595 411.841 355.114 409.359 352.052 409.359C348.991 409.359 346.51 411.841 346.51 414.902C346.51 417.963 348.991 420.445 352.052 420.445Z" fill="#06D0B0"/>
<path d="M567.472 288.083C570.533 288.083 573.015 285.602 573.015 282.541C573.015 279.48 570.533 276.998 567.472 276.998C564.411 276.998 561.93 279.48 561.93 282.541C561.93 285.602 564.411 288.083 567.472 288.083Z" fill="#869FDD"/>
<g filter="url(#filter4_d_236_51)">
<path d="M785.704 57.03L810.77 40.4021C816.864 36.7621 828.606 27.8609 842.702 36.5967C856.799 45.3326 999.827 128.393 1076.49 172.541L1108.67 191.071C1120.55 197.386 1137.19 214.019 1108.67 230.035C1080.14 246.051 660.871 487.232 426.757 622.131C421.021 625.357 406.108 629.874 392.343 622.131C378.577 614.388 356.743 601.477 355.943 601.036" stroke="url(#paint1_linear_236_51)" stroke-width="2"/>
</g>
<path d="M718.199 454.693L652.242 415.978" stroke="url(#paint2_linear_236_51)" stroke-width="2"/>
<path d="M896.06 352.94L796.02 295.032" stroke="url(#paint3_linear_236_51)" stroke-width="2"/>
<path d="M1058.29 258.799L982.236 214.706" stroke="url(#paint4_linear_236_51)" stroke-width="2"/>
<path d="M716.709 460.649C720.044 460.649 722.748 457.946 722.748 454.61C722.748 451.275 720.044 448.571 716.709 448.571C713.374 448.571 710.67 451.275 710.67 454.61C710.67 457.946 713.374 460.649 716.709 460.649Z" fill="url(#paint5_linear_236_51)"/>
<path d="M894.57 357.573C897.905 357.573 900.609 354.869 900.609 351.534C900.609 348.199 897.905 345.495 894.57 345.495C891.235 345.495 888.531 348.199 888.531 351.534C888.531 354.869 891.235 357.573 894.57 357.573Z" fill="url(#paint6_linear_236_51)"/>
<path d="M1058.2 264.756C1061.53 264.756 1064.24 262.052 1064.24 258.717C1064.24 255.381 1061.53 252.678 1058.2 252.678C1054.86 252.678 1052.16 255.381 1052.16 258.717C1052.16 262.052 1054.86 264.756 1058.2 264.756Z" fill="url(#paint7_linear_236_51)"/>
<path d="M372.322 601.863L359.5 609.391L353.957 598.802L372.322 601.863Z" fill="url(#paint8_linear_236_51)"/>
<path d="M664.097 146.456C667.249 146.456 669.805 143.901 669.805 140.748C669.805 137.596 667.249 135.04 664.097 135.04C660.944 135.04 658.389 137.596 658.389 140.748C658.389 143.901 660.944 146.456 664.097 146.456Z" fill="#CA8568"/>
<path d="M802.745 226.535C805.898 226.535 808.453 223.98 808.453 220.827C808.453 217.675 805.898 215.119 802.745 215.119C799.593 215.119 797.037 217.675 797.037 220.827C797.037 223.98 799.593 226.535 802.745 226.535Z" fill="#CA8568"/>
<path d="M814.657 119.653C817.81 119.653 820.365 117.098 820.365 113.945C820.365 110.793 817.81 108.237 814.657 108.237C811.505 108.237 808.949 110.793 808.949 113.945C808.949 117.098 811.505 119.653 814.657 119.653Z" fill="#B96767"/>
<path d="M876.453 406.547L822.516 438.479" stroke="#67EC84" stroke-width="2"/>
<path d="M831.947 438.388L821.851 432.522L818.049 441.126L831.947 438.388Z" fill="url(#paint9_linear_236_51)"/>
<path d="M540.879 225.903L536 222.839L541.984 222L540.879 225.903Z" fill="#8199D5" stroke="#839BD8" stroke-width="2"/>
</g>
<defs>
<filter id="filter0_d_236_51" x="484.943" y="108.23" width="400.713" height="277.828" filterUnits="userSpaceOnUse" color-interpolation-filters="sRGB">
<feFlood flood-opacity="0" result="BackgroundImageFix"/>
<feColorMatrix in="SourceAlpha" type="matrix" values="0 0 0 0 0 0 0 0 0 0 0 0 0 0 0 0 0 0 127 0" result="hardAlpha"/>
<feOffset dy="19"/>
<feGaussianBlur stdDeviation="27.5"/>
<feComposite in2="hardAlpha" operator="out"/>
<feColorMatrix type="matrix" values="0 0 0 0 0.521569 0 0 0 0 0.619608 0 0 0 0 0.858824 0 0 0 0.25 0"/>
<feBlend mode="normal" in2="BackgroundImageFix" result="effect1_dropShadow_236_51"/>
<feBlend mode="normal" in="SourceGraphic" in2="effect1_dropShadow_236_51" result="shape"/>
</filter>
<filter id="filter1_d_236_51" x="-33.9805" y="341.168" width="517.73" height="345.382" filterUnits="userSpaceOnUse" color-interpolation-filters="sRGB">
<feFlood flood-opacity="0" result="BackgroundImageFix"/>
<feColorMatrix in="SourceAlpha" type="matrix" values="0 0 0 0 0 0 0 0 0 0 0 0 0 0 0 0 0 0 127 0" result="hardAlpha"/>
<feOffset dy="19"/>
<feGaussianBlur stdDeviation="27.5"/>
<feComposite in2="hardAlpha" operator="out"/>
<feColorMatrix type="matrix" values="0 0 0 0 0.94902 0 0 0 0 0.647059 0 0 0 0 0.647059 0 0 0 0.25 0"/>
<feBlend mode="normal" in2="BackgroundImageFix" result="effect1_dropShadow_236_51"/>
<feBlend mode="normal" in="SourceGraphic" in2="effect1_dropShadow_236_51" result="shape"/>
</filter>
<filter id="filter2_d_236_51" x="621.762" y="0.0791016" width="452.822" height="307.911" filterUnits="userSpaceOnUse" color-interpolation-filters="sRGB">
<feFlood flood-opacity="0" result="BackgroundImageFix"/>
<feColorMatrix in="SourceAlpha" type="matrix" values="0 0 0 0 0 0 0 0 0 0 0 0 0 0 0 0 0 0 127 0" result="hardAlpha"/>
<feOffset dy="19"/>
<feGaussianBlur stdDeviation="27.5"/>
<feComposite in2="hardAlpha" operator="out"/>
<feColorMatrix type="matrix" values="0 0 0 0 0.776471 0 0 0 0 0.431373 0 0 0 0 0.423529 0 0 0 0.25 0"/>
<feBlend mode="normal" in2="BackgroundImageFix" result="effect1_dropShadow_236_51"/>
<feBlend mode="normal" in="SourceGraphic" in2="effect1_dropShadow_236_51" result="shape"/>
</filter>
<filter id="filter3_d_236_51" x="263.18" y="190.641" width="480.936" height="324.141" filterUnits="userSpaceOnUse" color-interpolation-filters="sRGB">
<feFlood flood-opacity="0" result="BackgroundImageFix"/>
<feColorMatrix in="SourceAlpha" type="matrix" values="0 0 0 0 0 0 0 0 0 0 0 0 0 0 0 0 0 0 127 0" result="hardAlpha"/>
<feOffset dy="19"/>
<feGaussianBlur stdDeviation="27.5"/>
<feComposite in2="hardAlpha" operator="out"/>
<feColorMatrix type="matrix" values="0 0 0 0 0.0196078 0 0 0 0 0.811765 0 0 0 0 0.686275 0 0 0 0.25 0"/>
<feBlend mode="normal" in2="BackgroundImageFix" result="effect1_dropShadow_236_51"/>
<feBlend mode="normal" in="SourceGraphic" in2="effect1_dropShadow_236_51" result="shape"/>
</filter>
<filter id="filter4_d_236_51" x="351.461" y="31.875" width="777.955" height="603.532" filterUnits="userSpaceOnUse" color-interpolation-filters="sRGB">
<feFlood flood-opacity="0" result="BackgroundImageFix"/>
<feColorMatrix in="SourceAlpha" type="matrix" values="0 0 0 0 0 0 0 0 0 0 0 0 0 0 0 0 0 0 127 0" result="hardAlpha"/>
<feOffset dy="4"/>
<feGaussianBlur stdDeviation="2"/>
<feComposite in2="hardAlpha" operator="out"/>
<feColorMatrix type="matrix" values="0 0 0 0 0 0 0 0 0 0 0 0 0 0 0 0 0 0 0.25 0"/>
<feBlend mode="normal" in2="BackgroundImageFix" result="effect1_dropShadow_236_51"/>
<feBlend mode="normal" in="SourceGraphic" in2="effect1_dropShadow_236_51" result="shape"/>
</filter>
<linearGradient id="paint0_linear_236_51" x1="652.741" y1="77.2056" x2="893.465" y2="311.594" gradientUnits="userSpaceOnUse">
<stop stop-color="#F79469"/>
<stop offset="1" stop-color="#C36C6C"/>
</linearGradient>
<linearGradient id="paint1_linear_236_51" x1="1124.47" y1="-1.37449" x2="276.609" y2="641.157" gradientUnits="userSpaceOnUse">
<stop stop-color="#6EE288"/>
<stop offset="0.257103" stop-color="#3BFD66"/>
<stop offset="1" stop-color="#70CE84"/>
</linearGradient>
<linearGradient id="paint2_linear_236_51" x1="736.126" y1="460.07" x2="643.06" y2="408.78" gradientUnits="userSpaceOnUse">
<stop stop-color="#5BFF7F"/>
<stop offset="1" stop-color="#05CFAF"/>
</linearGradient>
<linearGradient id="paint3_linear_236_51" x1="928.38" y1="371.885" x2="784.686" y2="290.73" gradientUnits="userSpaceOnUse">
<stop stop-color="#5BFF7F"/>
<stop offset="1" stop-color="#859EDB"/>
</linearGradient>
<linearGradient id="paint4_linear_236_51" x1="1092.84" y1="277.33" x2="964.119" y2="208.088" gradientUnits="userSpaceOnUse">
<stop stop-color="#5BFF7F"/>
<stop offset="0.880208" stop-color="#C36C6C"/>
<stop offset="1" stop-color="#C36C6C"/>
</linearGradient>
<linearGradient id="paint5_linear_236_51" x1="699.667" y1="458.747" x2="738.714" y2="446.338" gradientUnits="userSpaceOnUse">
<stop stop-color="#72DC89"/>
<stop offset="1" stop-color="#5BFF7F"/>
</linearGradient>
<linearGradient id="paint6_linear_236_51" x1="903.836" y1="347.398" x2="886.794" y2="356.332" gradientUnits="userSpaceOnUse">
<stop stop-color="#5BFF7F"/>
<stop offset="1" stop-color="#61C777"/>
</linearGradient>
<linearGradient id="paint7_linear_236_51" x1="1069.45" y1="253.836" x2="1048.69" y2="264.756" gradientUnits="userSpaceOnUse">
<stop stop-color="#5BFF7F"/>
<stop offset="0.0625" stop-color="#53FF79"/>
<stop offset="1" stop-color="#5DF27E"/>
</linearGradient>
<linearGradient id="paint8_linear_236_51" x1="382.663" y1="596.568" x2="340.969" y2="606.413" gradientUnits="userSpaceOnUse">
<stop stop-color="#5BFF7F"/>
<stop offset="1" stop-color="#7CE693"/>
</linearGradient>
<linearGradient id="paint9_linear_236_51" x1="828.669" y1="432.522" x2="817.376" y2="441.189" gradientUnits="userSpaceOnUse">
<stop stop-color="#67EC84"/>
<stop offset="1" stop-color="#73DB8A"/>
</linearGradient>
<clipPath id="clip0_236_51">
<rect width="1130" height="676" fill="white"/>
</clipPath>
</defs>
</svg>
